<?xml version="1.0" standalone="no"?>
<!DOCTYPE svg PUBLIC "-//W3C//DTD SVG 20010904//EN"
 "http://www.w3.org/TR/2001/REC-SVG-20010904/DTD/svg10.dtd">
<svg version="1.0" xmlns="http://www.w3.org/2000/svg"
 width="500.000000pt" height="500.000000pt" viewBox="0 0 500.000000 500.000000"
 preserveAspectRatio="xMidYMid meet">
<metadata>
Created by potrace 1.11, written by Peter Selinger 2001-2013
</metadata>
<g transform="translate(0.000000,500.000000) scale(0.100000,-0.100000)"
fill="#000000" stroke="none">
<path d="M2437 4744 c-1 -1 -42 -4 -92 -8 -49 -3 -101 -8 -115 -10 -14 -2 -47
-8 -75 -12 -71 -11 -77 -12 -110 -19 -111 -22 -378 -107 -399 -126 -6 -5 -18
-9 -28 -9 -10 0 -18 -5 -18 -12 0 -6 -3 -9 -6 -5 -7 6 -181 -80 -202 -100 -7
-7 -20 -13 -28 -13 -8 0 -14 -3 -14 -8 0 -4 -13 -13 -28 -20 -16 -6 -38 -21
-50 -32 -12 -12 -22 -18 -22 -15 0 4 -13 -4 -29 -17 -16 -12 -41 -32 -56 -43
-54 -38 -98 -75 -111 -93 -7 -9 -14 -13 -14 -9 0 5 -20 -12 -44 -37 -24 -24
-47 -42 -50 -39 -3 4 -6 1 -6 -5 0 -15 -36 -52 -50 -52 -5 0 -9 -4 -7 -8 1 -4
-16 -26 -38 -48 -44 -45 -80 -86 -81 -94 0 -3 -12 -17 -26 -32 -14 -16 -38
-47 -54 -70 -16 -24 -33 -46 -39 -50 -5 -4 -6 -8 -2 -8 5 0 2 -7 -5 -15 -31
-34 -36 -43 -31 -49 4 -3 1 -6 -5 -6 -6 0 -14 -10 -18 -22 -3 -12 -15 -30 -25
-41 -10 -11 -16 -24 -13 -28 2 -4 0 -10 -5 -13 -9 -6 -96 -168 -93 -173 1 -2
-8 -24 -19 -50 -55 -126 -126 -373 -143 -498 -5 -37 -15 -115 -22 -175 -6 -54
-6 -310 0 -360 2 -19 7 -60 10 -90 9 -76 11 -91 41 -230 12 -57 30 -123 41
-152 7 -21 11 -38 8 -38 -4 0 -2 -6 3 -12 12 -15 38 -90 35 -100 -1 -5 3 -8 9
-8 5 0 8 -4 5 -9 -7 -11 163 -351 175 -351 5 0 9 -7 9 -15 0 -8 5 -15 11 -15
5 0 8 -4 4 -9 -3 -6 3 -14 12 -20 10 -6 15 -11 11 -11 -7 0 34 -59 78 -113 8
-9 14 -19 14 -22 0 -5 27 -37 78 -93 12 -14 22 -29 22 -33 0 -5 7 -9 15 -9 8
0 15 -5 15 -11 0 -17 198 -203 261 -247 13 -9 26 -18 29 -21 15 -17 200 -142
200 -135 0 3 7 -2 16 -10 8 -9 21 -16 29 -16 7 0 15 -4 17 -8 3 -6 194 -107
208 -110 3 0 16 -5 30 -10 14 -5 28 -10 32 -11 4 -1 28 -10 53 -21 25 -11 48
-19 50 -19 3 0 42 -12 88 -26 73 -23 126 -36 207 -51 14 -2 34 -6 45 -9 11 -2
43 -7 70 -10 28 -4 77 -10 109 -14 61 -8 386 -7 421 2 11 3 49 8 85 12 56 6
148 24 215 41 11 3 31 7 45 10 46 9 275 88 278 96 2 5 11 8 21 8 9 0 28 8 41
17 14 10 26 17 28 15 10 -10 315 166 359 207 12 12 26 21 30 21 4 0 24 15 43
33 20 17 38 32 41 32 15 0 257 239 314 309 22 27 46 55 53 62 7 8 11 14 8 14
-3 0 8 15 25 32 16 18 29 38 29 44 0 7 4 14 9 16 11 4 66 91 63 101 -1 4 2 7
7 7 8 0 142 259 168 325 22 55 82 240 86 265 3 14 10 45 17 70 13 49 14 53 25
120 4 25 9 54 11 65 19 91 25 407 10 538 -11 110 -45 286 -72 377 -14 47 -26
90 -28 95 -17 76 -200 465 -218 465 -5 0 -8 7 -8 15 0 8 -4 15 -10 15 -5 0
-10 7 -10 15 0 8 -4 15 -10 15 -5 0 -10 5 -10 11 0 11 -59 98 -89 131 -9 10
-25 29 -36 44 -38 50 -90 107 -165 181 -113 112 -126 123 -139 123 -7 0 -10 4
-7 8 3 5 -9 17 -27 27 -18 10 -34 22 -37 26 -10 14 -130 99 -130 91 0 -4 -4
-2 -8 4 -10 15 -136 94 -151 94 -6 0 -11 4 -11 10 0 5 -3 9 -7 8 -10 -2 -46
13 -53 22 -5 6 -168 81 -185 85 -5 1 -23 8 -40 14 -16 7 -34 14 -40 15 -5 2
-17 6 -25 9 -33 13 -111 37 -134 41 -14 3 -29 7 -34 10 -9 5 -10 6 -142 30
-124 22 -145 25 -255 32 -99 6 -215 10 -218 8z m298 -457 c17 -3 46 -8 65 -12
19 -4 46 -8 60 -10 31 -4 181 -44 192 -51 4 -3 16 -7 25 -9 30 -7 104 -35 134
-51 16 -8 29 -11 29 -7 0 5 4 3 8 -2 8 -12 64 -39 75 -37 4 1 7 -3 7 -8 0 -6
9 -10 19 -10 11 0 21 -3 23 -7 4 -10 107 -73 118 -73 5 0 10 -3 12 -7 6 -15
116 -92 122 -86 3 4 6 -1 6 -9 0 -9 15 -23 33 -32 17 -8 29 -16 25 -16 -3 0
31 -35 76 -77 46 -43 86 -86 89 -97 4 -11 10 -15 19 -10 7 4 10 4 6 -1 -4 -4
17 -37 45 -74 29 -36 66 -86 82 -111 17 -25 34 -48 40 -52 5 -4 7 -8 3 -8 -4
0 7 -24 25 -52 35 -56 60 -107 97 -198 12 -30 26 -63 31 -72 5 -10 9 -27 9
-38 0 -11 4 -20 8 -20 4 0 9 -11 10 -26 1 -14 6 -34 12 -44 5 -10 10 -29 10
-43 0 -13 3 -27 7 -31 4 -3 8 -17 10 -29 5 -32 11 -69 17 -97 10 -45 20 -183
19 -285 0 -163 -16 -284 -54 -425 -11 -41 -22 -82 -24 -90 -2 -8 -12 -36 -24
-62 -11 -27 -18 -48 -15 -48 3 0 -1 -6 -8 -14 -11 -12 -20 -7 -59 34 -26 27
-50 46 -53 43 -3 -4 -6 1 -6 11 0 9 -3 15 -7 13 -5 -3 -14 1 -21 9 -7 8 -10
14 -7 14 8 0 -150 154 -160 157 -4 1 -15 13 -25 27 -9 15 -20 23 -23 19 -4 -3
-7 -1 -7 5 0 13 -79 92 -92 92 -5 0 -6 5 -3 10 3 6 -1 10 -9 10 -9 0 -15 3
-14 8 3 10 -69 82 -82 82 -5 0 -10 4 -10 9 0 5 -13 23 -30 41 -16 18 -30 28
-30 24 0 -5 -8 3 -18 19 -10 15 -22 24 -25 20 -4 -3 -7 -2 -7 3 0 12 -35 51
-83 92 -21 17 -35 32 -32 32 3 0 -13 18 -35 40 -22 22 -45 40 -50 40 -6 0 -10
6 -10 13 0 6 -16 23 -34 37 -19 14 -34 27 -33 30 2 6 -70 80 -78 80 -3 0 -14
9 -25 20 -11 11 -17 20 -14 20 3 0 -2 7 -11 17 -13 12 -19 13 -25 4 -4 -7 -11
-13 -16 -14 -5 -1 -8 -5 -7 -9 2 -5 -2 -8 -7 -8 -14 0 -60 -46 -54 -53 3 -3
-4 -8 -15 -12 -12 -3 -21 -13 -21 -21 0 -8 -6 -13 -12 -11 -7 1 -12 -4 -11
-10 2 -7 -2 -13 -8 -13 -15 0 -39 -26 -32 -34 4 -3 1 -6 -6 -6 -15 0 -62 -46
-55 -53 3 -3 -4 -8 -15 -12 -12 -3 -21 -13 -21 -21 0 -8 -6 -13 -12 -12 -7 2
-12 -3 -10 -9 1 -7 -2 -13 -8 -13 -13 0 -50 -37 -50 -50 0 -6 -6 -9 -12 -8 -7
2 -12 -3 -10 -9 1 -7 -3 -13 -9 -13 -15 0 -39 -26 -32 -34 4 -3 1 -6 -6 -6
-16 0 -62 -46 -54 -54 4 -3 -1 -6 -11 -6 -9 0 -14 -4 -11 -10 3 -6 1 -10 -5
-10 -14 0 -61 -46 -54 -53 3 -3 -4 -8 -15 -12 -12 -3 -21 -13 -21 -21 0 -8 -6
-13 -12 -12 -7 2 -12 -3 -10 -9 1 -7 -2 -13 -8 -13 -13 0 -50 -37 -50 -50 0
-6 -6 -9 -12 -8 -7 2 -12 -3 -10 -9 1 -7 -3 -13 -9 -13 -15 0 -39 -26 -32 -34
4 -3 1 -6 -6 -6 -15 0 -62 -46 -55 -53 3 -3 -3 -8 -14 -11 -10 -4 -25 -18 -32
-31 -7 -14 -15 -23 -18 -21 -2 3 -20 -12 -40 -32 -22 -23 -37 -32 -39 -24 -3
6 -8 10 -13 7 -5 -3 -11 4 -15 15 -3 11 -10 20 -15 20 -4 0 -35 27 -67 60 -32
33 -64 60 -72 60 -8 0 -12 3 -9 6 3 3 -9 20 -26 37 -119 117 -195 185 -200
180 -3 -4 -6 -1 -6 5 0 12 -35 52 -46 52 -3 0 -14 10 -23 22 l-18 22 -62 -63
c-33 -34 -61 -66 -61 -71 0 -6 -4 -9 -8 -8 -10 4 -268 -254 -264 -264 1 -5 -3
-8 -8 -8 -6 0 -85 -74 -175 -165 l-166 -166 -16 38 c-9 21 -16 42 -15 47 2 4
-2 13 -7 20 -9 11 -58 167 -67 216 -3 14 -9 40 -14 59 -5 19 -7 38 -4 43 3 4
1 8 -3 8 -5 0 -9 8 -10 18 -1 9 -5 44 -9 77 -9 65 -10 385 -1 450 22 160 78
371 122 456 8 14 11 29 8 33 -4 3 -2 6 3 6 6 0 16 17 23 38 8 20 17 42 22 47
4 6 21 36 38 68 48 91 131 212 181 264 14 14 18 22 10 18 -8 -4 0 5 18 20 18
15 29 31 26 37 -4 6 -3 9 2 6 5 -2 28 15 50 39 23 24 39 43 35 44 -3 0 4 4 17
10 15 5 21 13 16 21 -4 7 -4 10 1 6 4 -4 27 9 50 30 53 47 110 92 149 116 17
10 34 23 37 28 3 5 9 9 13 9 8 -2 59 31 67 42 3 5 9 8 13 8 10 -2 70 31 78 43
4 6 8 8 8 3 0 -4 13 -1 30 8 16 8 31 14 33 13 2 -2 10 2 18 9 14 11 50 25 149
59 25 8 52 18 60 21 8 3 22 7 30 8 8 2 25 6 38 9 12 3 32 8 45 11 12 2 36 8
52 12 39 9 50 10 115 18 30 3 56 8 58 10 5 4 371 -3 407 -8z"/>
</g>
</svg>
